<svg width="33" height="33" viewBox="0 0 33 33" fill="none" xmlns="http://www.w3.org/2000/svg">
<path d="M5.38062 1.70944C5.38062 1.10755 5.86854 0.619629 6.47043 0.619629H14.9583C15.5602 0.619629 16.0481 1.10755 16.0481 1.70944V10.1973C16.0481 10.7992 16.536 11.2871 17.1379 11.2871H20.292C20.8939 11.2871 21.3818 10.7992 21.3818 10.1973V7.04329C21.3818 6.44141 21.8698 5.95348 22.4717 5.95348H30.9595C31.5614 5.95348 32.0493 6.44141 32.0493 7.04329V15.5312C32.0493 16.133 31.5614 16.621 30.9595 16.621H22.4717C21.8698 16.621 21.3818 17.1089 21.3818 17.7108V20.8623C21.3818 21.4642 21.8698 21.9521 22.4717 21.9521H25.6258C26.2277 21.9521 26.7156 22.4401 26.7156 23.0419V31.5298C26.7156 32.1317 26.2277 32.6196 25.6258 32.6196H17.1379C16.536 32.6196 16.0481 32.1317 16.0481 31.5298V23.0444C16.0481 22.4425 15.5602 21.9546 14.9583 21.9546H11.8042C11.2023 21.9546 10.7144 22.4425 10.7144 23.0444V26.1986C10.7144 26.8005 10.2264 27.2885 9.62455 27.2885H1.13668C0.534798 27.2885 0.046875 26.8005 0.046875 26.1987V17.7108C0.046875 17.1089 0.534799 16.621 1.13668 16.621H9.62456C10.2264 16.621 10.7144 16.133 10.7144 15.5312V12.3769C10.7144 11.775 10.2264 11.2871 9.62456 11.2871H6.47043C5.86854 11.2871 5.38062 10.7992 5.38062 10.1973V1.70944Z" fill="#A0ED2D"/>
</svg>
